<svg xmlns="http://www.w3.org/2000/svg" version="1.0" viewBox="0 0 128 128"><defs><filter id="a" width="1.25" height="1.653" x="-.125" y="-.327"><feGaussianBlur stdDeviation="1.963"/></filter></defs><path d="M55.242 112.04c-5.465.43-6.823-3.26-11.495.89-1.413 1.42-1.725 4.22-1.334 5.79 2.874 3.85 5.998 2.87 10.605 4.44 2.277.57 4.263.89 7.116.89 2.9 0 4.684 1.44 7.561 0 2.231-1.11 4.291-.77 6.227-2.22 1.512-1.14 2.226-3.13 2.668-4.89.784-3.14-1.876-3.61-3.558-4.45-2.161-1.08-5.906-.41-7.561 0-1.773.44-3.316-2.23-5.781-2.23-2 0-1.06 1.78-4.448 1.78" style="fill:#000;fill-opacity:.72840002;fill-rule:evenodd;filter:url(#a)" transform="matrix(-1 0 0 1 129.858 0)"/><path d="M65.916 108.47c2.719.92 6.589.98 9.4 2.65.57.82.723 1.84 1.003 2.79.07 1.3-.547 2.23-1.352 3.18-2.37 1.4-5.32 1.11-7.978 1.06-2.277.3-5.032.22-6.896-1.24-2.815-1.87-2.767-4.11-3.041-7.32 2.973-.27 5.92-.63 8.864-1.12z" style="fill:#e6e6e6;fill-rule:evenodd;stroke:#333;stroke-width:1px"/><path d="M65.846 87.471c.145.779.889 2.802.625 4.125-.204 1.016-.508 2.031-.75 3-.52 2.545.445 4.982.625 7.504-.516 2.2.136 5.69-1.375 7.25-2.63 1.98-6.665 1.89-8.125-.63.25-1 .059-1.6.5-2.62 1.286-2.74.677-5.87.25-8.754-.058-3.791-7.31-7.633-7.166-11.427 2.167-.801 14.047-.044 15.416 1.552z" style="fill:#00325c;fill-rule:evenodd;stroke:#00192e;stroke-width:1px"/><path d="M75.796 115.07c-2.976 1.18-6.268 2.08-8.818 1.53-2.94.1-5.604-.07-8.721-2.46" style="fill:none;stroke:#333;stroke-width:1px"/><path d="M71.33 110.35c2.622 1.17 6.47 1.58 9.116 3.51.49.86.548 1.9.739 2.87-.051 1.3-.751 2.17-1.642 3.04-2.488 1.18-5.4.61-8.041.32-2.295.08-5.031-.25-6.752-1.88-2.63-2.13-2.374-4.34-2.35-7.57 2.985.01 5.955-.07 8.93-.29z" style="fill:#e6e6e6;fill-rule:evenodd;stroke:#333;stroke-width:1px"/><path d="M68.32 86.764c.146.779 4.072 4.393 3.807 5.716-.203 1.016-.507 2.031-.75 3-.518 2.545.446 4.98.625 7.5-.515 2.21.137 5.7-1.375 7.25-2.63 1.99-6.664 1.89-8.125-.63.25-1 .06-1.59.5-2.62 1.286-2.74.677-5.86.25-8.75-.057-3.791-11.02-9.224-10.878-13.018 2.168-.801 14.578-.044 15.946 1.552z" style="fill:#00325c;fill-rule:evenodd;stroke:#00192e;stroke-width:1px"/><path d="M80.556 117.84c-3.072.89-6.433 1.48-8.922.7-2.935-.18-5.572-.59-8.455-3.26" style="fill:none;stroke:#333;stroke-width:1px"/><path d="M72.653 9.424c10.45-.01 14.55 6.905 14.647 15.874-.01 1.876-.895 5.565-1.37 7.422.2 3.663 1.093 6.434-.005 10.003-1.281 5.05-4.156 6.844-9.054 7.91-4.343-.106-6.985-2.654-10.225-5.706-4.642-3.837-9.736-8.372-11.422-14.022-.583-5.392 2.056-10.52 3.61-15.54 2.159-5.489 8.612-6.737 13.819-5.942z" style="fill:#e9d2af;fill-rule:evenodd;stroke:#3f2d10;stroke-width:1px"/><path d="M86.256 28.037c.898 2.276 3.412 2.899 4.884 3.835 1.172 2.488 1.187 4.445-1.876 4.477-2.255-.527-3.41-1.94-4.15-3.988" style="fill:#e9d2af;fill-rule:evenodd;stroke:#3f2d10;stroke-width:1px"/><path d="M84.618 23.294c1.35 3.005.286 4.758-2.637 4.31-.901.392-2.762-1.809-2.325-3.261-.303-3.906 3.082-3.974 4.962-1.049z" style="fill:#fff;fill-rule:evenodd;stroke:#333;stroke-width:1px"/><path d="M83.354 23.654c-.385-.359 1.882-1.013 1.745 1.009-.106 1.566-2.003 1.93-2.633 1.487-1.265-.891.277-2.812.888-2.496z" style="fill:#000;fill-rule:evenodd;stroke:#000;stroke-width:1px"/><path d="M53.788 31.304c1.562-.236-.29 5.731-.397 6.853-.167 1.739-2.83 4.658-3.702 6.279-.741 1.376-4.905.802-5.996.546-1.836-.432-3.71.817-4.387 1.733-2.111 2.861-1.172-.996-.718-2.394.356-1.098 2.48-2.822 3.37-3.726 1.514-1.536 1.639-3.062 2.865-4.722 1.17-1.585 2.817-1.855 4.684-2.136 1.165-.176 2.898-1.933 4.28-2.433z" style="fill:#28170b;fill-rule:evenodd;stroke:#120a04;stroke-width:1px"/><path d="M49.226 91.289c2.742-3.07-.953-9.243 1-12.881.438-6.101 3.192-14.009 5.049-18.723.972-2.986 3.886-3.47 5.872-5.884 2.159-2.085 3.05-2.235 6.063-1.887 3.738 1.203 3.27.76 6.938 2.225 2.603 1.692 4.2 4.04 4.005 7.123-.322 2.758-.92 5.193-.064 7.875-.353 4.455 2.832 9.51 1.477 13.809-1.74 4.974-.954 6.738-2.377 11.751-3.996-3.271-11.778-.062-16.703-1.464-3.958-2.209-9.182 1.685-11.26-1.944z" style="fill:#1a1a1a;fill-rule:evenodd;stroke:#000;stroke-width:1px"/><path d="M75.395 55.531c-1.836 4.546-11.122 2.853-14.082-1.573 2.599-2.784 2.66-6.761 4.892-7.886 2.272-.21 4.458.467 6.602 1.141 1.709 1.392 3.014 6.585 2.588 8.318z" style="fill:#e9d2af;fill-rule:evenodd;stroke:#3f2d10;stroke-width:1px"/><path d="M58.72 36.023c4.839-.918 5.769 2.584 7.824 4.163 2.246.541 4.18 1.796 6.363 2.5.916.005 1.715.042 2.47-.331 1.913-.988 3.263-2.761 4.802-4.227 2.286-1.063 3.936-1.574 6.539-1.562 1.392.972 2.924 1.066 1.29 4.663-3.507.074-5.02-.718-7.251.215-1.636 1.357-1.671 3.568.447 4.47 1.652-.296 3.178-.041 4.072-1.917 2.713.261 2.258 2.385 1.385 4.225-.64 4.364-3.546 5.034-7.771 4.4-2.69-.346-6.185.094-8.672-.917-2.221-1.414-3.701-2.695-5.3-4.808-1.341-2.899-3.442-4.479-5.084-6.899-.354-1.67-2.466-2.803-1.113-3.975zm27.868-20.344c.693-9.86-26.19-13.247-27.633-5.456-7.968.623-8.125 19.949-2.485 25.879.459-.706 1.92-.698 2.127-1.79.869-4.608.34-12.036 4.267-11.324 3.416-1.112 2.173 3.4 2.985 4.08 5.652-3.504-.132-9.449 5.538-11.817 2.776 1.138 6.294 2.89 9.192.045 2.466.012 3.905 1.213 6.009.383z" style="fill:#28170b;fill-rule:evenodd;stroke:#120a04;stroke-width:1px"/><path d="M64.02 23.516c-5.851-2.358-4.861 6.331-.526 5.498" style="fill:#e9d2af;fill-rule:evenodd;stroke:#3f2d10;stroke-width:1px"/><path d="M62.889 24.886c-.844-1.497-3.1 1.165-.013 2.625" style="fill:#e9d2af;fill-rule:evenodd;stroke:#3f2d10;stroke-width:1px"/><path d="M85.728 42.564c-.967.404-1.325.185-3-.015" style="fill:none;stroke:#3f2d10;stroke-width:1px"/><path d="M58.566 83.023c.28 3.296 1.279 6.934 3.468 9.432 1.346.821 2.475-1.162 3.67.215.038 1.448-1.192 2.139-2.373 2.807 1.373 1.563 3.509 2.626 2.222 5.103-1.328-.29-2.484-1.439-3.112-2.549.226 1.425 2.113 3.889-.793 3.429-1.515-.62-1.255-2.172-1.694-3.562-.611 1.831-.308 4.272-2.351 1.898-.45-1.183-.08-2.182.309-3.307-.152-1.271-.924-2.444-1.453-3.627-2.216-2.21-3.403-5.002-4.608-7.847 1.16-2.765-1.464-5.544-.58-8.242.147-1.144.313-2.135.735-3.159 2.524-1.483 4.947-1.262 6.829.948 2.309 2.967-.337 5.576-.27 8.461z" style="fill:#e9d2af;fill-rule:evenodd;stroke:#3f2d10;stroke-width:1px"/><path d="M65.098 63.768c-.128 2.54-.768 4.87-1.591 7.248-.664 2.434-.857 4.917-.883 7.424-4.205-.446-9.455-2.713-13.655-4.035.44-2.071.76-4.728 1.164-6.813.523-2.816 4.604-8.137 7.657-8.149" style="fill:#1a1a1a;fill-rule:evenodd;stroke:#000;stroke-width:1px"/><path d="M70.256 70.64c-.063-.007-.157.062-.103-.136-.003-.974-.118-1.951-.124-2.926-.006-.478-.014-.96.005-1.432.07-.247.241-.246.372-.284.274-.036.554-.023.831.04.136.174.227.462.315.725.116.367.064.821-.074 1.087-.158.376-.412.511-.588.844-.132.19-.075.579.066.738.178.254.393.413.531.77.078.201.16.442.153.692-.122.134-.345.056-.433-.238-.112-.212-.208-.487-.329-.664-.129-.103-.217-.687-.365-.347-.08.239-.057.566-.069.851.016.15-.083.149-.127.22zm.187-2.279c.278-.26.575-.511.78-.975.095-.19.084-.544-.044-.713-.194-.314-.449-.279-.674-.3-.208-.092-.112.445-.109.687.032.433.03.868.047 1.301m2.254 2.542c0-.673.021-1.352-.057-2.027l-.124-1.423c-.106-.229-.286-.211-.427-.283-.172-.048-.407-.157-.457-.556-.018-.305.245-.094.346-.149.551.055 1.105.07 1.654.294.125.046.361.186.288.52-.097.216-.273.147-.41.136-.163-.026-.325-.063-.486-.075-.12.308-.033.746-.003 1.112.06.771.068 1.55.037 2.311.008.305-.094.575-.26.374a.28.28 0 0 1-.1-.234m1.764-1.297c-.1.181.012.563.035.815.045.312.135.674.057.97-.112.223-.368.045-.368-.318-.074-1.016-.09-2.034-.118-3.049 0-.326-.026-.666.012-.978.168-.287.417-.282.636-.308.212.006.437-.03.641.156.078.193.26.497.21.731-.328-.109-.666-.3-.99-.199-.174.061-.127.517-.13.784-.019.327.064.753.262.766.223.071.45-.178.666.055.186.258.008.638-.154.615-.248.066-.506.019-.759-.04m3.2 3.34c-.06-.392-.045-.802-.058-1.2-.019-1.295.02-2.581-.01-3.877-.033-.067-.123.281-.177.367a4 4 0 0 1-.509.846c.081.171.312.398.255.631-.114.304-.308.145-.395-.168-.24-.523-.478-1.053-.727-1.562.035 1.144.076 2.289.081 3.43.005.313-.232.457-.334.205-.08-.289-.049-.622-.066-.929-.012-1.04-.022-2.082-.01-3.118 0-.322.185-.385.316-.301.164.131.31.395.373.726.07.196.144.686.281.561.185-.337.375-.663.556-1.008.088-.223.235-.38.25-.696.075-.205.347-.204.351.15.038.671.034 1.341.068 2.013.027 1.033.013 2.065.07 3.1.034.277.068.619-.08.764-.058.084-.169.251-.235.066" style="fill:#fff"/></svg>