<svg xmlns="http://www.w3.org/2000/svg" version="1.0" viewBox="0 0 24 24"><defs><filter id="c"><feGaussianBlur stdDeviation=".07"/></filter><filter id="b"><feGaussianBlur stdDeviation=".21"/></filter><filter id="a"><feGaussianBlur stdDeviation=".35"/></filter><filter id="f"><feGaussianBlur stdDeviation=".179"/></filter><filter id="d"><feGaussianBlur stdDeviation=".179"/></filter><filter id="g"><feGaussianBlur stdDeviation=".06"/></filter><filter id="e"><feGaussianBlur stdDeviation=".06"/></filter></defs><g transform="translate(-110.79 -298.86)"><rect width="17" height="11" x="114.39" y="305.46" rx=".2" ry=".2" style="filter:url(#a);fill:#000"/><rect width="17" height="11" x="114.39" y="305.46" rx=".2" ry=".2" style="filter:url(#b);fill:#000"/><rect width="17" height="11" x="114.29" y="305.36" rx=".2" ry=".2" style="filter:url(#c);fill:#f5f6eb"/><path d="M122.84 309.41c-.34 0-8.22 6.5-8.44 6.94l8.44-1.96c2.79.59 5.67 1.55 8.43 1.96-.22-.44-8.1-6.94-8.43-6.94" style="filter:url(#d);fill:#000"/><path d="M122.79 309.36c-.34 0-8.22 6.5-8.44 6.94q.045.06.12.06h16.63q.075 0 .12-.06c-.22-.44-8.1-6.94-8.43-6.94" style="filter:url(#e);fill:#f5f6eb"/><path d="M114.4 305.47c.22.45 8.1 6.94 8.44 6.94.33 0 8.21-6.49 8.43-6.94l-8.43 2.07c-2.8-.62-5.68-1.62-8.44-2.07" style="filter:url(#f);fill:#000"/><path d="M.188 13c-.056 0-.09.026-.125.062C.282 13.503 8.168 20 8.5 20s8.218-6.497 8.438-6.938c-.037-.036-.07-.062-.126-.062z" style="filter:url(#g);fill:#f5f6eb" transform="translate(114.29 292.36)"/></g></svg>