<svg xmlns="http://www.w3.org/2000/svg" version="1.0" viewBox="0 0 128 128"><defs><filter id="a" width="1.103" height="1.294" x="-.051" y="-.147"><feGaussianBlur stdDeviation="2.19"/></filter></defs><path d="M83.875 88.875c-.915.183-2.131.05-2.75.875-.425.566-1.005 1.252-1.5 1.5-3.299 1.32-8.452 4.093-10.125 7.125-.567 1.362 1.985 2.345 1.25 3.625-2.528 3.8-6.011 5.2-10.25 3.5-3.635-1.22-8.717 1.98-12.25 4.25-4.911.77-4.395 4.94-7.75 6.5-5.655-4.44-8.398-9.82-16.125-8.75-3.912.42-6.467 3.05-5.875 6.12.873 4.7 7.047 7.54 10.75 8.76 5.525 1.62 7.29 1.37 12.375-2.5 4.702 5.39 10.494 2.83 14.625.87 3.842-4.8 10.858-2.6 8.125-10.5 2.623-3.03 6.298-4.89 9.25-7.63.959-1.88 4.29-1.56 6.25-2.24.734-.19.238-3.13 1-3.13 7.023-.77 14.403 2.239 21.125-.625 1.88-1.704-1.31 1.55-.88 3.25 5.97 2.285 13.65 1.395 13.13-2.125-.19-.747-4.07-3.265-4.25-4-.1-.407-.27-1.713.38-1.875 5.34.775 7.59-.746 10.24-2.375-2.66-4.13-7.33-.334-10.74-.5-8.79-.543-17.274-1.237-26.005-.125M103 90.625c.65.163.49 2.762-.12 3.375-5.937 3.55-14.253.51-21.005 1.125-3.024 1.004-.423-2.068.25-3.125 1.838 1.721 5.728-.748 5.625-1.5 6.673.535 8.596-.35 15.25.125" style="filter:url(#a);fill-rule:evenodd;fill:#000"/><path d="M83.921 6.69c-1.322 3.65-1.162 7.637-1.79 11.453-1.151 2.536 5.811 2.05 6.206-.7-.068-1.107-1.006-5.062-.782-6.097 1.865-1.492 8.174-.293 11.408.053 1.577 2.325.77 5.267 1.737 7.8 2.14.117 5.61 1.142 6.12-.898-2.26-2.777-2.95-8.952-4.58-11.694-6.199-.663-12.077-.193-18.319.083zm28.999 58.597c-2.34.685-3.9-.363-6.39-.37-.51 3.248 1.29 8.767.82 11.742-5.87-1.182-14.506.24-20.416-.17-.466-3.488 1.42-7.114.433-10.146-1.279 0-6.754-.206-7.594.504-.024-.048-.073-.025-.115.17.011-.05.788.06.834.017-.637 7.144-3.688 15.39-2.813 22.66-5.054 2.61 12.46 1.574 6.855-.477.248-3.294.807-6.602 1.376-9.867 6.82-.063 16.31-.843 22.63.066.85 2.871 1.12 5.96 1.43 9.194-7.33 2.121 14.06 2.123 7.5-.339-3.25-6.91-3.68-15.879-4.55-22.984z" style="fill-rule:evenodd;stroke:#28170b;stroke-width:1px;fill:#502d16"/><path d="M83 6c-1.549 4.069-1.636 8.514-2.5 12.768-1.307 2.827 5.684 2.286 6.25-.781 0-1.234-.185-5.248.104-6.401 1.957-1.664 7.683-.722 10.896-.336 1.434 2.592.443 5.872 1.25 8.695 2.14.131 5.54 1.273 6.18-1-2.08-3.096-1.72-9.39-3.18-12.445-6.16-.74-12.741-.808-19-.5zm25.37 65.323c-2.39.763-3.88-.405-6.37-.414-.7 3.622.75 9.775.09 13.091-5.791-1.318-14.517.268-20.401-.189-.25-3.889 1.861-7.931 1.061-11.311-1.279 0-6.741-.23-7.625.562-.021-.054-.071-.028-.125.188.014-.055.784.068.832.021-1.079 7.964-4.641 17.155-4.216 25.259-5.215 2.91 12.362 1.76 6.884-.53.452-3.672 1.216-7.36 1.987-11 6.825-.07 16.359-.94 22.633.073.67 3.201.74 6.644.85 10.25-7.461 2.364 13.93 2.367 7.53-.378-2.83-7.703-2.7-17.702-3.13-25.622z" style="fill-rule:evenodd;stroke:#28170b;stroke-width:1px;fill:#784421"/><path d="M72.25 17c8.201 1.771 14.98-1.812 23.086-.543 4.424 1.951 17.794-3.401 20.164.793.51 8.631 2.65 16.999 2.99 25.677 2.28 12.614 1.77 18.432 2.76 27.823-7.82.905-17.27.256-25.5 3-2.538-.009-29.449.696-30.5-1.25 1.451-6.763 1.895-13.606 2-20.5-.285-5.816.582-11.57 1.75-17.25 1.397-5.814 1.122-12.112 3.25-17.75z" style="fill-rule:evenodd;stroke:#333;stroke-width:1px;fill:#f9f9f9"/><path d="M83.833 20.439c-2.977 2.728-3.956 6.902-5.75 10.344.069 1.45 1.768 1.879 2.875 1.25-.801 1.75.205 3.466-.407 5.25-.366 1.779 2.194 2.033 2.594 1.688-1.442 3.656-4.482 6.75-5.312 10.562 1.95 2.577 4.514-.788 6.437-1.687.248.281-2.37 3.248-2.871 4.889-.907 1.765-1.648 5.178 1.402 4.986 3.153.468 6.735-2.112 9.032-2.5-1.871 1.505-3.97 5.69-.938 7 1.991.341 4.697-1.342 5.844-1.532-1.614 1.575-4.631 4.713-2.438 6.782 3.105.708 3.081-3.922 5.25-5.125 1.569-1.256 4.409-4.256 1.939-5.875-2.788-.734-5.705 1.502-7.97 1.937 1.371-2.496 5.545-4.295 4.719-7.437-2.513-1.943-5.416 1.095-8.057 1.407-1.865.741-3.714 1.578-5.662 1.874 2.158-5.507 8.026-9.33 8.969-15.344-2.2-2.651-4.676 1.313-6.313 2.625-2.957 2.953-2.745 1.529-.792-1.363 1.681-3.509 4.576-6.39 6.355-9.637-.003-2.224-3.108-2.248-3.867-.473-1.407 1.167-3.161 3.255-4.508 3.661.135-2.351 2.527-4.043 3.469-6.25 1.314-1.213 1.782-4.409-.75-4.188-1.219-.097-3.447 3.299-2 .844.842-1.283.826-3.902-1.25-3.688" style="fill:#00325c"/><path d="M78.777 39.615c-3.861 2.745-5.744 7.462-8.813 10.875-1.092 1.725 1.213 4.286 2.625 2.281 1.778-2.628.161.183.25 1.688-.529 2.845 3.5 2.27 4.5.562 1.116-.869 3.486-3.815 4-3.5-.496 2.687 3.102 2.794 4.495 1.279.767-.51.739 1.88 2.099 1.659 2.702-.02 4.42-2.831 6.75-3.969 2.537-2.404.978.628.656 2.281-.693 2.025 1.111 4.612 3.25 3.156 3.341-1.576 5.171-5.035 7.871-7.406-1.6 2.092.49 6.543 3.13 4.313 2.14-1.18 3.01-4.32 5.78-4.157 2.1-1.433-.46-5.389-2.34-3.187-1.5.468-3.35 3.824-2.38.562.83-2.335-1.85-4.204-3.62-2.375-2.93 1.856-5.5 5.911-7.628 7.5.828-1.882 1.668-5.804-1.313-6-2.937.57-5.155 2.863-7.531 4.469 1.445-2.172-1.627-3.852-3.188-2.156-.718.329-2.791 3.416-2.25 1.219.998-2.736-3.243-4.116-4.437-1.657-2.228 2.365-2.624 2.839-1-.375.786-2.015 2.242-5.685-.094-7.062a2.2 2.2 0 0 0-.812 0" style="fill:#006ca9"/><path d="M10.469 61.438c-7.411-.101-12.053 8.953-6.688 14.406 3.99 2.308 8.499 2.563 12.938 2.968 3.036 4.495 5.794 7.253 10.656 4.126 3.267-4.209 4.502-8.467 1.906-10.782-3.674-5.502-11.304-8.234-17.312-10.562a9 9 0 0 0-1.5-.156zm6.656 12.187c.663 0 1.437.609 2 .75.756.189 1.438.781 2.125 1.125.373.186 1.289 1.404 1.375 1.75.159.636.374 1.122.5 1.625.207.827-.288 1-1 1-.668 0-1.505-.788-1.875-1.25.046 0-1.639-.882-3.375-1.75-.96-.48-1-1.387-1-2.25 0-.816.514-1 1.25-1z" style="fill-rule:evenodd;stroke:#7e3b00;stroke-width:1px;fill:#ffa400"/><path d="M282.9 109.14c2.36 1.64 6.34 1.45 8.57 3.84.32.94-.1 3.29-.09 4.28-.29 1.27-1.15 1.99-2.18 2.68-2.67.69-5.42-.42-7.96-1.2-2.27-.35-4.9-1.19-6.28-3.12-2.18-2.58-1.52-4.71-.88-7.87 2.92.57 5.86 1.04 8.82 1.39z" style="fill-rule:evenodd;stroke:#333;stroke-width:1px;fill:#e6e6e6" transform="rotate(-43.626 167.453 400.073)"/><path d="M290.5 118.79c-2.89 1.59-6.5-.1-8.84-1.55-2.85-.72-5.36-1.63-7.69-4.79" style="stroke:#333;stroke-width:1px;fill:none" transform="rotate(-43.626 167.453 400.073)"/><path d="M47.404 91.91c2.177 2.725 1.962 3.797 4.825 8.19-.519 2.54.446 4.98.625 7.5-.515 2.2.137 5.69-1.375 7.25-2.63 1.98-6.665 1.89-8.125-.63.25-1 .06-1.6.5-2.62 1.286-2.74.677-5.87.25-8.75-.058-3.795-4.126-6.576-3.984-10.37 2.168-.801 5.916-2.166 7.284-.57z" style="fill-rule:evenodd;stroke:#00192e;stroke-width:1px;fill:#00325c"/><path d="M260.46 110.09c-3.16.67-5.55-2.15-8.48 3.18-.6.72-.58 1.42-.53 2.3.71 2.29 6.08 3.81 9.37 3.28 3.02.04 6.07-1.02 8.57-2.84.58-1.71-.04-4.02-.18-5.92-2.78.88-5.95.73-8.75 0z" style="fill-rule:evenodd;stroke:#333;stroke-width:1px;fill:#e6e6e6" transform="rotate(32.385 143.162 -283.483)"/><path d="M251.51 115.52c3.75 1.82 7.14 2.42 10.53 1.97 3.14-.1 4.78-2.39 7.08-2.54" style="stroke:#333;stroke-width:1px;fill:none" transform="rotate(32.385 143.162 -283.483)"/><path d="M32.936 91.871c-.145.779-3.187 5.63-2.923 6.954.944 2.795 1.212 5.175.513 8.025-.555 2.79-2.248 7.32-.25 9.37 2.845 1.13 5.706 1.85 8.125-.62-1.246-3.86-.335-7.17.259-11.18.028-3.8 2.764-6.922 2.621-10.742-2.167-.801-6.977-3.403-8.345-1.807z" style="fill-rule:evenodd;stroke:#00192e;stroke-width:1px;fill:#00325c"/><path d="M24.899 85.426c-3.397 6.245-9.253 4.731-9.149-2.71 2.271-1.957 2.286-8.24 4.281-10.261.641-.959 1.231-1.772 2.065-2.5 2.921-.203 4.991 1.075 5.69 3.892-.537 3.227-4.864 7.823-2.887 11.579zM56.5 83c.662 2.364 1.459 3.918 3.75 4.125 5.842 1.2 4.176-6.747 2.875-10.75-4.841-7.697-7.953.014-6.625 6.625z" style="fill-rule:evenodd;stroke:#3f2d10;stroke-width:1px;fill:#e9d2af"/><path d="M61.922 79.765c1.566-2.418 1.727-1.148 4.255-2.54 2.796-1.768 5.563-4.333 6.77-7.428.107-1.572.702-3.034 1.372-4.73 1.268-.702-.427 1.447.711 2.186.277-.714 1.825-.461 2.376-1.2.511-.685-.006-2.431.726-2.598 1.362-.312.982 1.335 1.904.971.347 1.316-1.509 2.244-2.205 3.314 1.16-.858 3.348-3.918 3.661-2.88.145 1.632-1.726 3.242-2.756 4.273 1.906-.303 2.929-2.572 1.768.335-.843.944-.899 1.952-2.077 2.127-1.057.72-1.742 1.947-2.548 2.962-.938 2.986-2.868 5.326-4.837 7.708-3.687 4.004-7.4 6.199-12.437 4.371" style="fill-rule:evenodd;stroke:#3f2d10;stroke-width:1px;fill:#e9d2af"/><path d="M55.71 95.851c-2.805-3.461-2.26-8.706-1.902-12.67-1.228-4.957 1.431-9.842.378-14.797-.465-3.106 2.397-5.976.836-8.684-1.784-2.413-6.292-3.536-9.321-3.691-3.886.57-7.808.045-11.667.884-2.847 1.239-7.81 2.166-8.127 5.239-.137 2.774 2.756 7.192 1.47 9.696-.387 4.452-.334 9.48.293 13.944.894 5.194-1.39 6.356-.814 11.535 4.481-2.566 8.733 2.973 13.822 2.4 4.268-1.526 12.384-.619 15.032-3.856z" style="fill-rule:evenodd;stroke:#000;stroke-width:1px;fill:#1a1a1a"/><path d="M28.339 70.455c-1.052 3.601-1.561 6.371-2.59 10.74-4.193-.544-5.309-3.312-9.477-4.732.489-2.06 2.429-4.473 2.881-6.547.732-2.728 1.953-2.929 3.218-5.271 1.297-1.477 1.416-3.136 4.565-3.897" style="fill-rule:evenodd;stroke:#000;stroke-width:1px;fill:#1a1a1a"/><path d="M27.14 22.542c-1.409 4.801.633 10.454 1.891 15.156-1.823 5.854.535 10.131 6.088 14.801 6.425 2.088 13.614 1.64 19.172-5.283 1.367-11.378-.052-4.471 2.534-13.976.855-12.313-3.514-20.66-15.09-19.765-8.002-.262-11.436 3.864-14.595 9.067z" style="fill-rule:evenodd;stroke:#3f2d10;stroke-width:1px;fill:#e9d2af"/><path d="M38.488 52.518c-1.304.695-2.281 2.765-2.556 4.636 2.18 2.574 8.822 2.589 12.002.201-.625-2.688-.211-3.069-2.517-4.937m10.698-24.757c7.413-2.957 4.337 7.177.15 6.004m-27.667-3.926c-7.747-1.92-3.319 7.701.669 5.968" style="fill-rule:evenodd;stroke:#3f2d10;stroke-width:1px;fill:#e9d2af"/><path d="M53.926 71.877c.701 2.425.731 4.093.795 6.599 4.197-.51 5.304-1.483 9.483-2.869-.472-2.064-1.319-4.126-1.754-6.204-.71-2.733-2.399-3.59-3.645-5.942-1.598-1.711-4.961-4.585-6.858-6.092" style="fill-rule:evenodd;stroke:#000;stroke-width:1px;fill:#1a1a1a"/><path d="M28.95 45.081c-1.003 2.166-.102 3.657.796 5.657 1.311 1.877 2.766 1.597 4.949 1.856 1.465-1.188 1.72-1.499 1.768-3.358-.356-2.505-.816-1.84-2.828-2.917-1.352-.347-3.285-1.238-4.685-1.238zm25.914-.779c1.275 2.018.574 3.612-.058 5.712-1.057 2.031-2.536 1.942-4.668 2.481-1.606-.989-1.899-1.265-2.187-3.102.03-2.53.571-1.93 2.427-3.258 1.296-.519 3.098-1.652 4.486-1.833z" style="fill-rule:evenodd;stroke:#120a04;stroke-width:1px;fill:#28170b"/><path d="M42.48 51.433c16.673-8.414 10.322-9.711 13.695-13.408 4.477-2.717 5.29-14.654.515-21.191-3.522-4.824-8.318-8.692-14.547-6.529-15.372-3.176-21.264 17.564-13.706 30.763 5.169 4.303 2.623 6.639 14.043 10.365z" style="fill-rule:evenodd;stroke:#120a04;stroke-width:1px;fill:#28170b"/><path d="M40.653 37.438c-1.745.209 3.438 6.788 3.933 7.898.767 1.72 7.978 4.27 9.458 5.667 1.257 1.186 7.019 1.272 8.095.698 1.811-.966 4.233-.234 5.265.503 3.221 2.302.912-1.349-.046-2.64-.753-1.013-3.46-3.064-4.858-2.82-3.697.648-6.388-3.814-7.891-5.566-1.428-1.665-5.296-1.7-7.381-1.45-1.302.156-4.932-2.178-6.575-2.29z" style="fill-rule:evenodd;stroke:#120a04;stroke-width:1px;fill:#28170b"/><path d="M75.375 66.125c.43-3.406 1.283-8.371 3.5-11.375.299-.075 1.367.496 1.625.625.119 3.441-2.025 6.215-2.625 9.5-.163.653-.417.959-.625 1.375-.302.604-1.55.119-1.875-.125z" style="fill-rule:evenodd;stroke:#502d16;stroke-width:1px;fill:#d38d5f"/><path d="M79.272 54.349c-.71-1.752-.852-2.319 1.654-3.236.162-.384 1.281-1.333 1.313-1.748.631.587 1.33 2.02 1.55 3.148-2.345 3.032-2.839 1.918-4.517 1.836z" style="fill-rule:evenodd;stroke:#1a1a1a;stroke-width:1px;fill:#4d4d4d"/><path d="M34.564 69.539c-.124.005-.305.089-.201-.115-.004-.953-.228-1.891-.238-2.844-.012-.468-.028-.938.008-1.403.137-.254.467-.284.721-.343a9 9 0 0 1 1.606-.105c.263.147.439.413.609.655.224.339.125.793-.142 1.077-.307.396-.798.573-1.138.93-.254.208-.145.58.127.711.344.218.76.336 1.028.662.15.183.31.405.296.651-.237.153-.668.115-.837-.158-.217-.188-.403-.441-.637-.593-.249-.078-.419-.635-.706-.276-.154.248-.11.563-.134.844.031.145-.159.161-.245.238zm.36-2.264c.539-.303 1.112-.6 1.506-1.09.186-.203.166-.547-.081-.691-.376-.274-.87-.195-1.305-.177-.401-.053-.216.455-.211.692.063.419.06.845.091 1.266m4.359 2.099c-.002-.659.042-1.328-.109-1.976q-.122-.686-.24-1.372c-.206-.206-.554-.157-.826-.203-.333-.017-.787-.083-.885-.465-.033-.296.474-.134.671-.206 1.064-.042 2.135-.124 3.197 0 .243.024.699.12.558.46-.188.228-.528.191-.795.204-.313.003-.626-.005-.939.011-.234.323-.064.736-.005 1.09.113.745.132 1.506.072 2.256.015.299-.182.581-.504.412-.098-.025-.201-.098-.195-.211m3.411-1.577c-.195.195.024.549.068.792.088.298.261.637.111.941-.218.238-.712.107-.712-.248-.143-.982-.174-1.976-.229-2.966 0-.319-.05-.648.023-.959.325-.311.808-.349 1.231-.413.41-.031.844-.105 1.239.042.151.175.502.442.405.679-.634-.05-1.286-.178-1.916-.022-.334.089-.243.528-.251.79-.034.323.126.726.51.704.429.031.869-.252 1.287-.061.36.221.016.623-.298.628-.48.108-.979.107-1.468.093m6.189 2.716c-.119-.373-.089-.777-.112-1.164-.037-1.266.038-2.532-.021-3.796-.064-.06-.237.296-.342.39-.278.351-.637.653-.984.917.156.153.604.335.493.573-.22.318-.595.196-.763-.095-.466-.471-.926-.949-1.406-1.404.067 1.114.146 2.229.156 3.345.01.306-.448.488-.645.259-.158-.269-.095-.601-.128-.899a66 66 0 0 1-.019-3.051c-.001-.316.357-.41.611-.351.316.101.597.334.722.647.133.18.278.647.542.501.357-.362.726-.715 1.076-1.084.17-.234.454-.413.481-.725.147-.214.673-.261.681.086.073.651.066 1.308.131 1.959.052 1.008.026 2.021.133 3.025.068.265.135.594-.152.762-.113.092-.327.275-.454.105" style="fill:#fff"/><path d="M109.94 34.724c-.89-.439-.16-2.043.76-1.675.98.156 1.71-1.189 1.09-1.939-.35-1.137-1-2.225-1.99-2.909-.57-.756.14-2.019 1.08-1.916 1.27-.178 2.6.577 3.09 1.758-.3 1.248-.02 2.566.52 3.708.21 1.739-1.53 3.408-3.26 3.091-.43 0-.86-.049-1.29-.118m-25.218 9.001c.903-1.374 3.161-1.49 4.201-.217 11.427-10.053 2.186 5.621-.362 7.082-5.773 2.888-4.326-2.863-3.839-6.865m2.352.008c-8.875 8.907 8.886 6.215 0 0m10.146-.496c.091.056.097.061 0 0m-1.736-1.467c.779-.461 1.907.321 1.749 1.212.225 2.093.857 4.11 1.312 6.158-.046.933-1.58 1.19-1.929.323-4.322.515-7.225 9.514-1.132-7.693m6.296 9.662c.11-3.759 1.6-5.546-.49-9.398.43-.863 1.98-.386 1.85.564.56.764 2 .122 1.8-.803.49-.867 2.06-.068 1.64.832-1.94 2.584-2.77 5.687-4.3 8.483-.14.142-.31.259-.5.322m9.91-.026a5.34 5.34 0 0 1-3.12-1.454c.11-.913 1.55-1.206 2-.407.65.629 1.7.79 2.51.382-.72-2.78-4.76-3.162-2.54-6.766 1.13-.876 2.94-.64 3.8.496.09.949-1.44 1.399-1.88.555-3.63.719 1.53 3.873 2.5 5.146.33 1.207-.98 2.491-2.18 2.133-.36-.044-.72-.125-1.09-.085" style="fill:red"/><path d="M4.125 69.5c-1.593.575-1.036 1.861-.5 3.125.634 1.542 1.716 1.623 3.125 1.125.916-.962.637-2.268.5-3.5-.874-1.253-1.763-1.202-3.125-.75z" style="fill-rule:evenodd;stroke:green;stroke-width:1px;fill:#0f0"/><path d="M6.625 65.375c.545 2.221 1.876 3.284 4.25 2.875.916-.962.637-2.268.5-3.5-1.45-1.6-4.028-1.268-4.75.625z" style="fill-rule:evenodd;stroke:navy;stroke-width:1px;fill:#00f"/><path d="M14.75 64.75c-1.858 1.233-.753 3.468.75 4.5 2.551.257 3.216-1.058 3-3-.874-1.253-2.388-1.952-3.75-1.5zM82 50.5c-1.098 1.217-.368 2.248.5 3.375.788 1.054.625 2.254.625 3.5 1.388-.877 1.863-1.828 2.125-3.375.349-2.228-1.334-3.329-3.25-3.5z" style="fill-rule:evenodd;stroke:maroon;stroke-width:1px;fill:red"/></svg>