<svg xmlns="http://www.w3.org/2000/svg" version="1.0" viewBox="0 0 128 128"><defs><filter id="a"><feGaussianBlur stdDeviation="1.728"/></filter></defs><path d="M14.142 111.38c-.479 4.2 4.26 5.11 7.071 6.72 5.206 3.91 10.681 7.89 17.324 8.49 6.587-1.26 12.827-4 19.092-6.37 2.743-.92 6.666-.72 7.425-3.53.435-1.74-.401-4.2.707-5.31 6.637-1.87 9.074-6.75 13.435-11.31 7.724-2.887 2.104 6.07 0 8.84-3.656 3.43-10.453 8.88-6.364 14.14 4.181 2.03 10.162.23 14.496-1.77 6.335-3.54 4.548-14.65 9.192-19.09 3.165-2.222 7.46-1.36 11.31-2.828 6.77-3.599 5.54-12.373-1.06-15.203-6.49-2.503-34.175-9.296-34.292 1.061 1.904 4.467-1.718 6.108-3.889 10.96-1.477 2.399-13.659 5.32-15.556 4.95-6.067.68-11.36-1.464-16.617-3.182-5.058-.214-20.821 8.632-22.274 13.432" style="filter:url(#a);fill-rule:evenodd;fill:#000;fill-opacity:.83951"/><path d="M21.435 93.181c-3.176.624-5.67-.03-8.367 1.931-.6.719-.691 2.664-.648 3.549.237.764.51 1.509.707 2.299 2.752.26 5.792 1.9 8.666.98 3.019.04 6.07-1.02 8.569-2.837.578-1.709-.042-4.027-.176-5.922-2.784.875-5.949.733-8.751 0z" style="fill-rule:evenodd;stroke:#333;stroke-width:1px;fill:#e6e6e6" transform="rotate(-11.116 85.44 -113.596)"/><path d="M13.127 99.457c3.211.833 6.485 2.133 9.886 1.123 3.144-.1 4.776-2.388 7.084-2.538" style="stroke:#333;stroke-width:1px;fill:none" transform="rotate(-11.116 85.44 -113.596)"/><path d="M38.975 122.73c.203.41 2.297 1.31 2.958.98 2.509-1.26 7.949-4.16 10.943-4.16 3.259-2.38 6.686-2.51 10.006-4.58-.247-.56.57-1.84.145-2.37-2.562-3.18-8.255-5.51-11.676-7.76-4.668-3.93-10.827-6.748-16.81-8.036-5.98 3.078-12.955 4.286-18.104 8.866 6.435 7.57 15.655 10.34 22.538 17.06z" style="fill-rule:evenodd;stroke:#1a1a1a;stroke-width:1px;fill:#333"/><path d="M35.157 98.914c3.32 1.346 6.112 2.086 9.375 3.746 4.643 1.96 9.744 6.75 14.25 9-1.068 2.11-7.139 2.28-9.875 3.5-5.06.32-7.797 3.1-11.625 5.38-5.596-2.1-14.728-7.37-18.375-12.38 3.171-4.56 11.027-7.3 16.25-9.246z" style="fill-rule:evenodd;stroke:#4d4d4d;stroke-width:1px;fill:#b3b3b3"/><path d="M66.209 74.736c-2.802 1.757-6.31 3.146-9.623 2.898-1.465-.583-.559-2.677-2.377-2.805-1.181.84-.993 2.239-.818 3.585-2.074-.159-4.207-1.227-5.417 1.293 1.037.881 2.646 1.118 3.911.953-1.275.675-4.375.646-2.266 2.695 1.409.837 2.492-.303 3.867-.787-1.096 1.588-3.227 2.811-.104 3.019 1.216-.352 1.792-1.248 2.458-2.234 1.106-.643 2.508-.731 3.772-1.019 3.098.443 6.043-.286 9.041-1.034 1.512-2.588 5.31-2.162 6.935-4.491.827-.804 1.519-1.532 2.084-2.485-.332-2.908-1.965-4.712-4.862-4.888-3.759-.063-4.254 3.621-6.601 5.3z" style="fill-rule:evenodd;stroke:#3f2d10;stroke-width:1px;fill:#e9d2af"/><path d="M79.971 84.872c-5.219 1.325-13.412-2.545-17.855 1.06-1.126 2.414.34 6.385-.177 9.016.112 3.491-3.377 6.682-.53 9.192 3.428 1.64 9.182 1.75 11.667-.88 2.272-3.19-.579-7.641 1.945-10.61 5.321-1.738 10.214.697 14.142-4.596 2.129-5.276-4.33-7.518-8.662-7.071-.548 1.168-.33 2.587-.53 3.889z" style="fill-rule:evenodd;stroke:#00192e;stroke-width:1px;fill:#00325c"/><path d="M76.64 52.061c-2.262 3.159-3.577 6.565-4.192 10.346-1.058 2.76-2.192 5.246-2.073 8.257 4.034.161 7.893-1.203 11.863-1.242 1.084-4.993.014-10.137-.624-15.134" style="fill-rule:evenodd;stroke:#000;stroke-width:1px;fill:#1a1a1a"/><path d="M81.126 109.05c-1.929 2.12-5.284 4.05-6.93 6.88-.1.99.265 1.96.48 2.93.57 1.17 1.437 1.93 2.603 2.37 2.751.07 6.562-.74 8.862-2.08 2.135-.84 3.257-3.37 4.174-5.56 1.551-3 .424-4.93-.899-7.87-2.727 1.21-5.48 2.33-8.29 3.33z" style="fill-rule:evenodd;stroke:#333;stroke-width:1px;fill:#e6e6e6"/><path d="M79.073 120.87c3.172-.42 4.862-1.36 6.824-3.08 2.616-1.34 2.613-3.78 4.176-7.39" style="stroke:#333;stroke-width:1px;fill:none"/><path d="M90.047 88.23c-1.267 0-8.34-1.114-9.192-.53-1.507 4.462-.376 9.404-.884 14.32-.283 4.11-1.105 6.09 1.767 9.19 6.982 2.2 11.064-3.36 9.723-3.53.664-3.55-2.506-10.023 1.984-11.339 1.304.74 5.035 2.784 7.795 2.795 3.56.015 7.03-.013 9-5.163.02-4.098-2.55-10.237-6.93-11.232-3.424 2.523-10.466-2.357-12.202 1.6-.267 1.066-1.061 2.741-1.061 3.889z" style="fill-rule:evenodd;stroke:#00192e;stroke-width:1px;fill:#00325c"/><path d="M107.85 84.076c-3.28-3.015-3.13-8.551-3.35-12.524-1.94-4.725.44-10.424-1.32-15.173-.92-3.005-2.34-5.621-4.283-8.072-2.117-2.127-4.675-3.137-7.694-2.849-3.761 1.13-7.719 1.184-11.414 2.577-2.636 1.641-4.277 3.958-4.143 7.044.269 2.765.818 5.21-.089 7.876.267 4.46-.535 9.147.737 13.472 1.642 5.007-.876 4.566-1.301 8.856 2.098-.377 5.343 4.139 4.823 2.907.459-3.458 8.341-.264 12.873-.802 4-2.132 13.011.276 15.161-3.312z" style="fill-rule:evenodd;stroke:#000;stroke-width:1px;fill:#1a1a1a"/><path d="M98.152 70.726c-1.4.174-2.366.901-3.363 1.821-2.332 1.558-3.463 4.326-6.089 5.385-1.76.452-2.882.777-4.658.458-1.02-1.122-2.315-1.48-3.552-.949-.121 1.253.924 2.032 1.773 2.916-.814 1.149-3.446.756-4.771 1.69-.498 2.724 3.157 1.621 4.464.678-1.055 1.151-3.542 2.095-4.261 2.891.994 1.822 4.07.182 5.411-.921-1.49 1.186-3.563 1.675-2.085 3.358 1.852.458 3.24-1.171 4.724-2.138 2.519-1.309 5.258-2.125 7.623-3.735 3.022-2.906 10.862-4.682 12.672-8.566-.11-.478-.28-8.871-.64-9.544-1.32-2.48-6.958 2.197-8.271 1.996-.516-.079 1.524 4.858 1.023 4.66z" style="fill-rule:evenodd;stroke:#3f2d10;stroke-width:1px;fill:#e9d2af"/><path d="M93.943 53.012c-.113 2.542.302 4.922.896 7.366.43 2.487.387 4.977.175 7.475 4.228-.045 8.876-1.377 13.186-2.295-.25-2.103-.62-4.181-.82-6.294-.41-2.795-2.44-4.597-3.41-7.073-1.28-2.197-3.19-3.359-5.77-2.857" style="fill-rule:evenodd;stroke:#000;stroke-width:1px;fill:#1a1a1a"/><path d="M74.131 6.753C63.813 8.409 60.868 15.89 62.204 24.76c.308 1.85 1.77 5.35 2.535 7.108.388 3.648-.052 6.526 1.601 9.874 2.071 4.781 5.864 6.878 10.869 7.15 4.27-.798 9.785-3.213 12.497-6.742 3.97-4.528 4.294-11.125 5.058-16.972-.285-5.416-3.708-10.057-6.044-14.763-3.006-5.076-9.575-5.279-14.589-3.663z" style="fill-rule:evenodd;stroke:#3f2d10;stroke-width:1px;fill:#e9d2af"/><path d="M62.041 15.935C59.784 6.313 85.783-1.32 88.45 6.141c7.549-.67 10.767 18.418 10.01 25.298-7.703 1.202-5.188-8.373-10.031-9.864-1.985-.159-2.378 1.407-3.953 2.092-3.854-1.657-1.48-9.129-7.497-10.579-2.559 1.566-5.752 3.857-9.068 1.511-2.432.405-3.661 1.82-5.87 1.336z" style="fill-rule:evenodd;stroke:#120a04;stroke-width:1px;fill:#28170b"/><path d="M97.122 30.244c-1.558.259 2.05 5.36 2.499 6.394.699 1.602 4.129 3.553 5.459 4.824 1.14 1.08 4.92-.755 5.88-1.336 1.61-.979 3.78-.372 4.7.291 2.9 2.067.81-1.311-.05-2.5-.68-.933-3.24-1.915-4.36-2.499-1.92-.993-2.51-2.404-4.19-3.604-1.6-1.145-3.25-.892-5.11-.582-1.17.194-3.358-.941-4.828-.988z" style="fill-rule:evenodd;stroke:#120a04;stroke-width:1px;fill:#28170b"/><path d="M79.386 48.08c1.591 4.638 10.249 3.403 13.44-.86-1.138-2.515-1.906-5.516-4.532-6.898-2.257-.331-4.476.228-6.654.788-1.78 1.299-2.587 5.217-2.254 6.97z" style="fill-rule:evenodd;stroke:#3f2d10;stroke-width:1px;fill:#e9d2af"/><path d="M66.22 48.202c.862 1.186 2.311 1.769 3.956 1.495 2.715.315 5.415 1.06 8.142 1.526 3.53.306 5.709-1.832 7.887-4.196 3.852-2.882 7.602-7.32 7.671-12.335-.093-2.081-.896-1.942-2.004-1.377-1.613 2.307-3.698 4.808-6.175 6.288-3.199 1.513-5.786 2.398-7.378-1.306-1.646-3.013-5.395-3.332-8.487-3.591-6.349.778-6.354 9.23-3.612 13.496zm4.198-9.602c2.828-1.791 10.469 4.976 4.921 5.58-2.437-.385-3.166-1.799-4.218.354-4.646 2.298-3.74-4.165-.703-5.934z" style="fill-rule:evenodd;stroke:#120a04;stroke-width:1px;fill:#28170b"/><path d="M71.333 23.748c-.854 3.182.477 4.742 3.291 3.834.952.243 2.438-2.227 1.775-3.59-.324-3.904-3.676-3.432-5.066-.244zm-6.247-.987c-2.235.908-3.029 2.863-2.137 5.425 3.505 4.503 7.416-3.468 2.137-5.425z" style="fill-rule:evenodd;stroke:#333;stroke-width:1px;fill:#fff"/><path d="M69.155 25.885c-.014 2.446-2.131 3.936-3.165 5.342-.191 2.744.503 4.574 3.37 3.494 1.911-1.307 2.476-3.042 2.425-5.219m14.714-6c5.401-3.261 5.809 5.474 1.397 5.343" style="fill-rule:evenodd;stroke:#3f2d10;stroke-width:1px;fill:#e9d2af"/><path d="M87.835 24.674c.594-1.613 3.244.655.431 2.589" style="fill-rule:evenodd;stroke:#3f2d10;stroke-width:1px;fill:#e9d2af"/><path d="M69.318 42.078c1.019.245 3.68-.419 5.302-.883" style="stroke:#3f2d10;stroke-width:1px;fill:none"/><path d="M72.992 24.785c.323-.415-2.019-.7-1.561 1.274.354 1.53 2.284 1.587 2.835 1.048 1.107-1.081-.721-2.731-1.274-2.322zm-8.357 1.568c.296-1.011-2.178.173-1.151 2.219.709 1.413 2.192.224 2.302.124 1.479-1.347-.316-3.853-1.151-2.343z" style="fill-rule:evenodd;stroke:#000;stroke-width:1px;fill:#000"/><path d="M89.693 88.407c1.955-.133 4.025-.359 5.834.354 1.391.238 2.737.601 4.066 1.06" style="stroke:#00192e;stroke-width:1px;fill:none"/><path d="M33.221 101.31c2.249 1.71 5.732 3.18 8.341 4.27 2.722 1.17 5.061 2.79 7.595 4.33 1.34.91 2.656 1.79 3.914 2.81m-23.453-9.64c3.766 2.43 8.756 6.06 12.914 7.83 1.57.6 2.83 1.75 4.25 2.63m-20.283-7.53c2.005 2.05 6.749 3.57 8.908 5.4 1.995 1.12 4.127 2.01 5.5 3.88.269.27.454.35.75.5" style="stroke:#4d4d4d;stroke-width:1px;fill:none"/><path d="M51.907 109.16c-2.068.56-3.172 1.73-5.144 3.46-3.777.29-8.017 3.17-9.895 4.78m-.086-16.24c-3.363 2.35-9.223 4.51-13.063 6.04m14.712-3.3c-2.553 1.46-8.707 6.42-11.368 7.51m18.594-3.25c-1.646 1.19-3.19 2.38-5.125 3.25-2.196 1.08-3.776 2.84-5.481 4.54" style="stroke:#4d4d4d;stroke-width:1px;fill:none"/><path d="M38.992 121.99c3.796-3.44 7.844-3.94 12.976-5.36 3.377-.48 6.707-2.82 9.935-3.96" style="stroke:#1a1a1a;stroke-width:1px;fill:none"/><path d="M41.629 105.67c-1.905 1.22-3.689 2.6-5.472 3.99-.697.95-3.666 3.73-4.658 4.14" style="stroke:#4d4d4d;stroke-width:1px;fill:none"/><path d="M17.877 94.39c4.283 1.901 7.8 5.169 12.198 6.89 2.076 2.01 2.814 4.81 3.643 7.48 1.549 4.86 3.182 6.05 5.978 14.05.071 1.01-.42 1.19-.228 1.58-3.417.54-9.958-4.72-13.482-7.05-3.928-.79-5.538-4.34-9.133-6.16-.46-3.76-2.813-6.5-2.955-10.37-.476-3.217-3.941-8.728-4.665-11.898 2.25.618 6.15 4.455 8.644 5.478z" style="fill-rule:evenodd;stroke:#1a1a1a;stroke-width:1px;fill:#333"/><path d="M9.515 90.277c1.171 1.255 8.197 5.76 10.216 7.154 3.043 2.869 6.801 3.999 9.594 5.949 1.808 2.78 2.946 5.44 3.57 8.68.195 3.36 4.672 9.23 5.705 12.33" style="stroke:#1a1a1a;stroke-width:1px;fill:none"/><path d="M24.613 107.01c-.762-.41-1.71.14-2.424.56-.952.63-1.305 1.81-1.8 2.8 1.116.64 2.065 1.09 3.073 1.63.84.51 1.77.14 2.214-.69.433-.89.622-2.1.562-3.04-.15-.64-1.112-.91-1.625-1.26z" style="fill-rule:evenodd;stroke:#00192e;stroke-width:1px;fill:#00325c"/><path d="M78.316 66.432c-.355.182-.164-.322-.274-.512-.171-.857-.442-1.695-.539-2.567a10 10 0 0 1-.114-1.053c.147-.317.54-.366.838-.464a8.6 8.6 0 0 1 1.34-.239c.309.14.549.404.743.675.206.37.042.819-.221 1.113-.286.352-.719.576-.938.982-.107.327.226.54.497.614.385.131.792.277 1.041.621.205.188.244.537-.123.519-.38.071-.619-.281-.898-.47-.284-.166-.544-.39-.838-.519-.334.13-.227.579-.21.86.092.247-.166.302-.304.44m.079-2.213c.513-.384 1.091-.76 1.379-1.354.109-.305-.167-.567-.451-.61-.388-.09-.78.038-1.163.092-.245.218.026.581.045.855.078.336.122.679.19 1.017m4.426 1.499c-.078-.689-.14-1.388-.387-2.042l-.342-1.127c-.298-.198-.674-.067-1.007-.09-.271.057-.905-.205-.635-.519.304-.069.615-.11.922-.17.955-.157 1.918-.34 2.89-.305.416-.058.537.507.102.571-.443.114-.906.122-1.355.207-.203.392.076.794.159 1.177.188.712.284 1.447.306 2.181.013.344-.445.421-.63.189l-.016-.034zm3.084-1.914c-.161.323.157.633.245.935.169.265.306.835-.163.858-.406.045-.447-.41-.518-.698a40 40 0 0 1-.555-3.001c-.113-.318.135-.544.405-.654a5.6 5.6 0 0 1 1.504-.37c.292-.053.541.086.731.3.188.131.222.436-.083.342-.557.015-1.141-.006-1.661.223-.286.251-.076.68-.054.999.078.37.492.454.8.328.325-.091.688-.301 1.02-.127.325.287-.141.642-.443.659-.399.119-.815.168-1.228.206m6.254 1.875c-.194-.456-.204-.962-.294-1.444-.15-1.097-.231-2.204-.418-3.296-.185.139-.247.437-.417.618a6 6 0 0 1-.7.791c.194.133.729.291.466.597-.32.317-.659-.096-.904-.293-.423-.336-.844-.673-1.278-.994.196 1.078.414 2.154.547 3.243-.011.37-.633.488-.695.076-.125-.513-.174-1.042-.256-1.564a42 42 0 0 1-.249-2.067c.031-.359.512-.43.778-.285.401.136.561.55.831.836.286.268.451-.227.626-.388.31-.396.629-.789.883-1.223-.027-.343.419-.635.681-.361.191.64.239 1.316.394 1.967.176.975.257 1.97.502 2.931.162.296.088.662-.213.834-.079.068-.205.114-.284.022" style="fill:#fff"/></svg>