<svg xmlns="http://www.w3.org/2000/svg" xmlns:xlink="http://www.w3.org/1999/xlink" viewBox="0 0 66.323 68.03"><defs><linearGradient xlink:href="#a" id="c" x1="298.48" x2="299.9" y1="238.13" y2="150.17" gradientTransform="matrix(.53078 0 0 .52644 27.581 -339.55)" gradientUnits="userSpaceOnUse"/><linearGradient id="a"><stop offset="0" style="stop-color:#7c7c7c"/><stop offset="1" style="stop-color:#e6e3e3"/></linearGradient><linearGradient xlink:href="#a" id="e" x1="326.01" x2="310.68" y1="161.52" y2="177.41" gradientTransform="translate(27.92 -340.03)scale(.5298)" gradientUnits="userSpaceOnUse"/><filter id="b" color-interpolation-filters="sRGB"><feGaussianBlur stdDeviation="1.262"/></filter><filter id="d" width="1.083" height="1.215" x="-.042" y="-.107" color-interpolation-filters="sRGB"><feGaussianBlur stdDeviation=".537"/></filter></defs><g transform="translate(-153.27 263.15)"><path d="M170.56-255.14v56h45v-40.108l-16.023-15.892z" style="opacity:.6;stroke-linejoin:round;color:#000;stroke-dashoffset:117.54;filter:url(#b);stroke:#000;stroke-linecap:round;stroke-width:2;fill:#000"/><path d="M163.56-262.14v56h45v-40.108l-16.023-15.892z" style="stroke-linejoin:round;color:#000;stroke-dashoffset:117.54;stroke:#000;stroke-linecap:round;stroke-width:2;fill:url(#c)"/><rect width="31" height="12" x="154.56" y="-251.14" rx="1" ry="1" style="color:#000;filter:url(#d);fill:#000"/><path d="M478 161.25c-3.478-1.376 1.855 33.049 15 34-12.991-2.29-40.731-12.262-44 6 11.19-4.649 20.083-26.734 29-40z" style="stroke-linejoin:bevel;stroke:red;stroke-width:3;fill:none" transform="translate(-284.37 -408.39)"/><path d="m208.56-246.14-15.989-15.989v15.989z" style="stroke-linejoin:round;color:#000;stroke-dashoffset:117.54;stroke:#000;stroke-linecap:round;stroke-width:2;fill:url(#e)"/><path d="M163.56-262.14v56h45v-40.108l-16.023-15.892z" style="stroke-linejoin:round;color:#000;stroke-dashoffset:117.54;stroke:#000;stroke-linecap:round;stroke-width:2;fill:none"/><rect width="31" height="12" x="154.56" y="-251.14" rx="1" ry="1" style="color:#000;fill:red"/><text xml:space="preserve" x="189.475" y="-215.917" style="font-size:10.208px;font-family:Sans;fill:#fff;letter-spacing:0;text-anchor:middle;line-height:125%;word-spacing:0;font-weight:700;text-align:center" transform="scale(.89596 1.1161)">
        <tspan x="189.475" y="-215.917">PDF</tspan>
      </text></g></svg>