<svg xmlns="http://www.w3.org/2000/svg" xml:space="preserve" viewBox="0 0 100 43.688"><path d="M2.343 25.944C.938 25.006 0 23.133 0 21.492c0-1.64.703-3.162 2.46-3.982h-.117C10.66 12.59 22.258 6.03 29.99 1.461v10.895c-3.046 1.757-7.146 3.749-17.455 9.255l.117.116c5.506 2.461 11.832 6.209 17.338 9.489v11.012zm95.314-8.2c1.404.938 2.343 2.812 2.343 4.452s-.703 3.162-2.461 3.982h.118c-8.317 4.92-19.916 11.48-27.647 16.049V31.332c3.046-1.756 7.146-3.748 17.455-9.254l-.117-.116c-5.505-2.461-11.832-6.209-17.338-9.489V1.461zM46.401 43.688H39.39L53.48 0h7.13z"/><text x="-2321" y="-1337.156" font-size="177.33" style="font-size:177.33px;font-family:Courier-Bold">&lt;/&gt;</text></svg>