<svg xmlns="http://www.w3.org/2000/svg" xmlns:xlink="http://www.w3.org/1999/xlink" viewBox="0 0 137.48 150.32"><defs><linearGradient id="a"><stop offset="0" style="stop-color:#dadada"/><stop offset=".349" style="stop-color:#f1f1f1"/><stop offset="1" style="stop-color:#f0f0f0"/></linearGradient><linearGradient xlink:href="#a" id="f" x1="728.96" x2="351.71" y1="230.07" y2="689.86" gradientTransform="matrix(.28346 0 0 .31053 -85.252 -40.356)" gradientUnits="userSpaceOnUse"/><linearGradient xlink:href="#a" id="h" x1="741.65" x2="622.35" y1="169.44" y2="287.73" gradientTransform="matrix(.28342 0 0 .31058 -85.252 -40.356)" gradientUnits="userSpaceOnUse"/><linearGradient id="g" x1="687.96" x2="330.88" y1="236.13" y2="418.54" gradientTransform="matrix(.29343 0 0 .29999 -85.252 -40.356)" gradientUnits="userSpaceOnUse"><stop offset="0" style="stop-color:#fff"/><stop offset="1" style="stop-color:#fff;stop-opacity:0"/></linearGradient><linearGradient id="b" x1=".052" x2=".783" y1=".977" y2=".008"><stop offset="0" style="stop-color:#000;stop-opacity:.095506"/><stop offset="1" style="stop-color:#000;stop-opacity:0"/></linearGradient><linearGradient xlink:href="#b" id="d" x1="207.87" x2="544.79" y1="836.03" y2="389.18" gradientTransform="scale(.94318 1.0602)" gradientUnits="userSpaceOnUse"/><linearGradient xlink:href="#b" id="e" x1="204.63" x2="546.29" y1="839.62" y2="386.48" gradientTransform="scale(.94395 1.0594)" gradientUnits="userSpaceOnUse"/><linearGradient xlink:href="#b" id="c" x1="201.39" x2="547.81" y1="843.2" y2="383.76" gradientTransform="scale(.94469 1.0585)" gradientUnits="userSpaceOnUse"/></defs><path d="M3.103.031v146.96h134.11V36.771L103.683.031H3.105z" style="fill-rule:evenodd;stroke-width:.42649;stroke-opacity:.36478;fill:#fff"/><g style="fill:url(#c)" transform="matrix(.30417 0 0 .29757 -50.76 -118.79)"><path d="M173.36 408.81v489.05h435.05V531.07L499.65 408.81z" style="fill-rule:evenodd;stroke-width:.95407pt;fill:url(#d);fill-opacity:.75"/><path d="M170.12 407.19v493.9h441.54V529.81c-36.85-41.42-73.68-82.86-110.57-124.25H170.12z" style="fill-rule:evenodd;stroke-width:.95407pt;fill:url(#e);fill-opacity:.75"/><path d="M166.88 403.94v500.4h448.03V528.56c-37.45-42.09-74.89-84.19-112.38-126.25H166.88z" style="fill-rule:evenodd;stroke-width:.95407pt;fill:url(#c);fill-opacity:.75"/></g><path d="M3.159.213v146.96h134.11V36.953L103.739.216H3.159z" style="fill-rule:evenodd;stroke:#000;stroke-width:.42649;stroke-opacity:.36478;fill:url(#f)"/><path d="m4.144 11.538-.606 134.69h131.68l.075-33.295c-2.94 1.13-32.69-41.002-70.141-39.189-37.484 1.813-27.785-56.778-61.005-62.213z" style="fill-rule:evenodd;stroke-width:1pt;fill:url(#g)"/><path d="M12.393-131.26h106.29v4.486H12.393zm0 21.03h82.906v4.486H12.393zm0 21.018h99.095v4.486H12.393zm0 21.024h55.026v4.486H12.393zm0 21.024h85.604v4.486H12.393z" style="fill-rule:evenodd;stroke-width:1pt;fill-opacity:.43396" transform="scale(1 -1)"/><path d="M137.27 36.952c-10.11-2.99-23.21-2.566-33.1-.86 1.71-10.963 1.92-24.702-.43-35.879z" style="fill-rule:evenodd;stroke-width:.95407pt;fill:url(#h)"/><path d="M12.393-25.893h55.026v4.486H12.393z" style="fill-rule:evenodd;stroke-width:1pt;fill-opacity:.43396" transform="scale(1 -1)"/></svg>